<?xml version="1.0" encoding="iso-8859-1"?>
<!-- Generator: Adobe Illustrator 19.0.0, SVG Export Plug-In . SVG Version: 6.00 Build 0)  -->
<svg version="1.1" id="Capa_1" xmlns="http://www.w3.org/2000/svg" xmlns:xlink="http://www.w3.org/1999/xlink" x="0px" y="0px"
	 viewBox="0 0 512 512" style="enable-background:new 0 0 512 512;" xml:space="preserve">
<path style="fill:#FFC433;" d="M483.077,117.413h1.415c10.955,0,19.835-8.88,19.835-19.835s-8.88-19.835-19.835-19.835h-1.119v-9.6
	c0-33.243-27.198-60.441-60.441-60.441l0,0c-33.243,0-60.441,27.198-60.441,60.441v9.6h-2.996c-10.955,0-19.835,8.88-19.835,19.835
	s8.88,19.835,19.835,19.835h3.292c2.264,22.989,17.551,42.29,38.327,50.401v17.237h-1.076h-29.028
	c-11.837,0-21.432,9.595-21.432,21.431v33.352c0,6.779,5.496,12.275,12.275,12.275h116.636c6.779,0,12.275-5.496,12.275-12.275
	v-33.352c0-11.837-9.595-21.431-21.432-21.431h-29.028h-0.162v-15.646C463.24,162.492,480.649,142.072,483.077,117.413z"/>
<path style="fill:#F23466;" d="M151.57,117.413h0.935c10.955,0,19.835-8.88,19.835-19.835s-8.88-19.835-19.835-19.835h-0.639v-9.6
	c0-33.243-27.198-60.441-60.441-60.441l0,0c-33.243,0-60.441,27.198-60.441,60.441v9.6h-3.477c-10.955,0-19.835,8.88-19.835,19.835
	s8.88,19.835,19.835,19.835h3.773c2.246,22.814,17.313,42.006,37.846,50.226v17.412H68.05H39.021
	c-11.837,0-21.432,9.595-21.432,21.431v33.352c0,6.779,5.496,12.275,12.275,12.275H146.5c6.779,0,12.275-5.496,12.275-12.275
	v-33.352c0-11.837-9.595-21.431-21.432-21.431h-29.028h-0.162v-15.495C131.492,162.786,149.125,142.244,151.57,117.413z"/>
<path style="fill:#65CDEF;" d="M316.363,369.606h1.415c10.955,0,19.835-8.88,19.835-19.835s-8.88-19.835-19.835-19.835h-1.119v-9.6
	c0-33.243-27.198-60.441-60.441-60.441l0,0c-33.243,0-60.441,27.198-60.441,60.441v9.6h-2.996c-10.955,0-19.835,8.88-19.835,19.835
	s8.88,19.835,19.835,19.835h3.292c2.264,22.989,17.551,42.29,38.327,50.401v17.236h-1.076h-29.028
	c-11.837,0-21.432,9.595-21.432,21.432v33.352c0,6.779,5.496,12.275,12.275,12.275h116.636c6.779,0,12.275-5.496,12.275-12.275
	v-33.352c0-11.837-9.595-21.432-21.432-21.432H273.59h-0.163v-15.646C296.526,414.684,313.936,394.264,316.363,369.606z"/>
<g>
	<path style="fill:#342E30;" d="M68.628,49.524l1.338-1.626c12.371,12.478,37.223,29.879,79.624,29.879h2.304v-9.996
		c0-33.243-27.198-60.441-60.441-60.441l0,0c-33.239,0-60.435,27.193-60.441,60.431C56.554,67.543,68.628,49.524,68.628,49.524z"/>
	<g style="opacity:0.1;">
		<path style="fill:#342E30;" d="M137.344,185.05H114.73c11.837,0,21.432,9.595,21.432,21.431v33.352
			c0,6.779-5.496,12.275-12.275,12.275h22.614c6.779,0,12.275-5.496,12.275-12.275v-33.352
			C158.776,194.646,149.181,185.05,137.344,185.05z"/>
		<path style="fill:#342E30;" d="M152.505,77.743h-0.639v-9.6c0-33.243-27.198-60.441-60.441-60.441l0,0
			c-0.043,0-0.085,0.003-0.128,0.003c-0.043,0-0.085-0.003-0.128-0.003l0,0c-3.819,0-7.552,0.374-11.179,1.061
			c27.948,5.284,49.262,29.956,49.262,59.38v9.6h0.639c10.955,0,19.835,8.88,19.835,19.835s-8.88,19.835-19.835,19.835h-0.935
			c-2.445,24.831-20.078,45.373-43.417,52.143v15.495h0.162h22.452v-15.495c23.338-6.77,40.971-27.312,43.417-52.143h0.935
			c10.955,0,19.835-8.88,19.835-19.835C172.34,86.623,163.46,77.743,152.505,77.743z"/>
	</g>
</g>
<path style="fill:#CD315B;" d="M400.938,49.534l1.252-1.713c12.341,12.484,37.211,29.966,79.71,29.966h1.823v-9.996
	c0-33.243-27.198-60.441-60.441-60.441l0,0c-33.243,0-60.441,27.198-60.441,60.441C388.716,67.791,400.938,49.534,400.938,49.534z"
	/>
<g>
	<path style="fill:#3A9CB4;" d="M316.441,329.935v-9.6c0-33.243-27.198-60.441-60.441-60.441l0,0
		c-33.243,0-60.441,27.198-60.441,60.441l0,0l0,0c25.874,0,38.097-18.257,38.097-18.257l1.569-1.394
		c12.447,12.461,37.255,29.647,79.393,29.647L316.441,329.935z"/>
	<circle style="fill:#3A9CB4;" cx="258.264" cy="235.126" r="25.421"/>
</g>
<g style="opacity:0.1;">
	<path style="fill:#342E30;" d="M302.618,436.992H283.48c11.837,0,21.432,9.595,21.432,21.432v33.352
		c0,6.779-5.496,12.275-12.275,12.275h19.137c6.779,0,12.275-5.496,12.275-12.275v-33.352
		C324.05,446.588,314.454,436.992,302.618,436.992z"/>
	<path style="fill:#342E30;" d="M317.779,329.685h-1.119v-9.6c0-31.159-23.896-57.007-54.266-60.125
		c12.075-1.973,21.293-12.449,21.293-25.083c0-14.04-11.381-25.421-25.421-25.421c-3.386,0-6.614,0.667-9.569,1.869
		c9.296,3.781,15.853,12.898,15.853,23.551c0,10.661-6.576,19.764-15.883,23.539c1.331,0.543,2.717,0.977,4.15,1.29
		c-2.222,0.09-4.41,0.314-6.565,0.64c28.932,4.452,51.272,29.61,51.272,59.737v9.6h1.119c10.955,0,19.835,8.88,19.835,19.835
		c0,10.955-8.88,19.835-19.835,19.835h-1.415c-2.428,24.659-19.837,45.079-42.936,51.991v15.646h0.163h18.975v-15.646
		c23.098-6.912,40.508-27.332,42.936-51.991h1.415c10.955,0,19.835-8.88,19.835-19.835
		C337.614,338.563,328.733,329.685,317.779,329.685z"/>
</g>
<g style="opacity:0.1;">
	<path style="fill:#342E30;" d="M469.261,185.05h-22.614c11.837,0,21.432,9.595,21.432,21.431v33.352
		c0,6.779-5.496,12.275-12.275,12.275h22.614c6.779,0,12.275-5.496,12.275-12.275v-33.352
		C490.693,194.646,481.098,185.05,469.261,185.05z"/>
	<path style="fill:#342E30;" d="M484.422,77.743h-0.639v-9.6c0-33.243-27.198-60.441-60.441-60.441l0,0
		c-0.043,0-0.085,0.003-0.128,0.003c-0.043,0-0.085-0.003-0.128-0.003l0,0c-3.819,0-7.552,0.374-11.179,1.061
		c27.948,5.284,49.262,29.956,49.262,59.38v9.6h0.639c10.955,0,19.835,8.88,19.835,19.835s-8.88,19.835-19.835,19.835h-0.935
		c-2.445,24.831-20.078,45.373-43.417,52.143v15.495h0.162h22.452v-15.495c23.338-6.77,40.971-27.312,43.417-52.143h0.935
		c10.955,0,19.835-8.88,19.835-19.835C504.257,86.623,495.377,77.743,484.422,77.743z"/>
</g>
<path d="M105.733,122.389c-8.129,8.209-21.421,8.273-29.63,0.143c-3.011-2.983-7.868-2.96-10.849,0.051
	c-2.982,3.012-2.958,7.869,0.052,10.849c6.846,6.781,15.908,10.508,25.537,10.508c0.059,0,0.12,0,0.179,0
	c9.694-0.046,18.792-3.865,25.614-10.753c2.982-3.011,2.958-7.869-0.052-10.849C113.573,119.355,108.715,119.377,105.733,122.389z"
	/>
<path d="M166.448,206.482c0-16.048-13.056-29.104-29.104-29.104h-21.519v-2.503c21.351-8.411,37.462-27.296,41.957-50.302
	c12.651-2.469,22.229-13.632,22.229-26.995c0-12.91-8.942-23.764-20.955-26.712v-2.724c0-37.558-30.555-68.113-68.113-68.113
	S22.83,30.584,22.83,68.142v2.334C9.885,72.704,0,84.005,0,97.578c0,14.034,10.567,25.639,24.16,27.296
	c4.24,21.189,18.336,38.863,37.294,48.006v4.497H39.021c-16.048,0-29.104,13.056-29.104,29.104v45.628
	c0,4.238,3.435,7.672,7.672,7.672h17.477c4.237,0,7.672-3.434,7.672-7.672c0-4.238-3.435-7.672-7.672-7.672h-9.805v-37.955
	c0-7.587,6.172-13.76,13.76-13.76h22.436c0.039,4.204,3.456,7.6,7.668,7.6c4.237,0,7.672-3.434,7.672-7.672v-14.536
	c4.566,0.969,9.297,1.487,14.146,1.487c3.238,0,6.419-0.242,9.537-0.681v13.73c0,4.238,3.435,7.672,7.672,7.672
	c4.213,0,7.629-3.396,7.668-7.6h21.522c7.587,0,13.76,6.172,13.76,13.76v37.955H68.05c-4.237,0-7.672,3.434-7.672,7.672
	s3.435,7.672,7.672,7.672h90.726c4.237,0,7.672-3.434,7.672-7.672V206.482z M164.668,97.578c0,4.293-2.242,8.066-5.611,10.232
	V87.348C162.426,89.512,164.668,93.285,164.668,97.578z M90.944,15.373c29.097,0,52.769,23.672,52.769,52.769v2.189
	c-43.481-1.812-65.641-23.494-73.328-33.052c-2.656-3.303-7.484-3.827-10.787-1.17c-3.302,2.656-3.826,7.484-1.17,10.786
	c0.408,0.507,0.863,1.054,1.341,1.616c-3.364,3.483-10.244,9.111-20.907,11.169C42.926,34.592,64.729,15.373,90.944,15.373z
	 M15.344,97.578c0-5.05,3.095-9.389,7.487-11.225v22.451C18.44,106.968,15.344,102.628,15.344,97.578z M38.175,111.488v-36.16
	c16.311-2.084,27.001-10.461,32.467-16.043c13.837,11.676,37.339,25.071,73.07,26.406v25.797c0,29.097-23.672,52.769-52.769,52.769
	S38.175,140.586,38.175,111.488z"/>
<path d="M68.6,110.318c4.237,0,7.672-3.434,7.672-7.672v-9.527c0-4.238-3.435-7.672-7.672-7.672s-7.672,3.434-7.672,7.672v9.527
	C60.928,106.883,64.363,110.318,68.6,110.318z"/>
<path d="M111.735,85.446c-4.237,0-7.672,3.434-7.672,7.672v9.527c0,4.238,3.435,7.672,7.672,7.672s7.672-3.434,7.672-7.672v-9.527
	C119.407,88.881,115.972,85.446,111.735,85.446z"/>
<path d="M489.771,124.572C502.421,122.102,512,110.94,512,97.578c0-12.91-8.942-23.764-20.954-26.711v-2.724
	c0-37.558-30.555-68.113-68.113-68.113c-37.559,0-68.114,30.555-68.114,68.113v2.334c-12.946,2.228-22.83,13.528-22.83,27.101
	c0,14.034,10.566,25.638,24.159,27.296c4.24,21.189,18.337,38.863,37.295,48.006v4.497h-22.433
	c-16.048,0-29.104,13.056-29.104,29.104v45.628c0,4.238,3.434,7.672,7.672,7.672h22.114c4.238,0,7.672-3.434,7.672-7.672
	c0-4.238-3.434-7.672-7.672-7.672h-14.442v-37.955c0-7.587,6.172-13.76,13.76-13.76h22.436c0.039,4.204,3.456,7.6,7.668,7.6
	c4.238,0,7.672-3.434,7.672-7.672v-14.536c4.566,0.969,9.297,1.487,14.146,1.487c3.238,0,6.419-0.242,9.537-0.681v13.73
	c0,4.238,3.434,7.672,7.672,7.672c4.214,0,7.629-3.396,7.668-7.6h21.522c7.586,0,13.759,6.172,13.759,13.76v37.955h-80.4
	c-4.238,0-7.672,3.434-7.672,7.672s3.434,7.672,7.672,7.672h88.072c4.238,0,7.672-3.434,7.672-7.672v-45.628
	c0-16.048-13.056-29.104-29.103-29.104h-21.518v-2.503C469.165,166.463,485.275,147.578,489.771,124.572z M496.656,97.578
	c0,4.293-2.241,8.066-5.61,10.231V87.348C494.413,89.513,496.656,93.285,496.656,97.578z M422.932,15.373
	c29.097,0,52.769,23.672,52.769,52.769v2.189c-43.481-1.812-65.641-23.494-73.329-33.052c-2.655-3.303-7.485-3.827-10.786-1.17
	c-3.303,2.656-3.826,7.484-1.17,10.786c0.406,0.505,0.859,1.049,1.335,1.608c-3.386,3.503-10.261,9.119-20.901,11.175
	C374.914,34.591,396.717,15.373,422.932,15.373z M347.332,97.578c0-5.049,3.094-9.388,7.486-11.225v22.451
	C350.426,106.967,347.332,102.628,347.332,97.578z M370.162,111.488v-36.16c16.311-2.084,27.001-10.462,32.467-16.044
	c13.837,11.676,37.339,25.071,73.071,26.406v25.797c0,29.097-23.672,52.769-52.769,52.769
	C393.835,164.256,370.162,140.586,370.162,111.488z"/>
<path d="M437.721,122.389c-8.128,8.209-21.42,8.274-29.63,0.143c-3.012-2.984-7.868-2.959-10.849,0.051
	c-2.982,3.011-2.959,7.869,0.051,10.849c6.846,6.781,15.909,10.508,25.538,10.508c0.059,0,0.119,0,0.178,0
	c9.695-0.046,18.792-3.865,25.614-10.753c2.982-3.011,2.959-7.869-0.051-10.849C445.559,119.355,440.702,119.378,437.721,122.389z"
	/>
<path d="M400.588,110.318c4.238,0,7.672-3.434,7.672-7.672v-9.527c0-4.238-3.434-7.672-7.672-7.672
	c-4.238,0-7.672,3.434-7.672,7.672v9.527C392.915,106.883,396.35,110.318,400.588,110.318z"/>
<path d="M443.722,85.446c-4.238,0-7.672,3.434-7.672,7.672v9.527c0,4.238,3.434,7.672,7.672,7.672c4.238,0,7.672-3.434,7.672-7.672
	v-9.527C451.394,88.881,447.959,85.446,443.722,85.446z"/>
<path d="M271.007,374.581c-3.938,3.976-9.188,6.181-14.785,6.207c-5.57,0.006-10.868-2.128-14.844-6.066
	c-3.011-2.983-7.867-2.959-10.849,0.051c-2.982,3.011-2.958,7.868,0.052,10.849c6.846,6.781,15.909,10.509,25.537,10.509
	c0.059,0,0.119,0,0.178-0.001c9.694-0.046,18.792-3.865,25.615-10.754c2.981-3.009,2.958-7.867-0.053-10.849
	C278.847,371.547,273.99,371.568,271.007,374.581z"/>
<path d="M324.332,323.058v-2.724c0-29.271-18.561-54.284-44.53-63.899c7.067-6.074,11.555-15.067,11.555-25.094
	c0-18.247-14.846-33.093-33.093-33.093s-33.092,14.846-33.092,33.093c0,9.483,4.015,18.04,10.427,24.078
	c-27.507,8.758-47.492,34.543-47.492,64.914v2.334c-12.947,2.228-22.831,13.53-22.831,27.102c0,14.034,10.566,25.638,24.16,27.295
	c4.24,21.19,18.336,38.863,37.295,48.007v4.497h-22.433c-16.048,0-29.103,13.056-29.103,29.103v45.628
	c0,4.238,3.435,7.672,7.672,7.672h141.185c4.238,0,7.672-3.434,7.672-7.672v-45.628c0-16.048-13.056-29.103-29.103-29.103h-21.518
	v-2.503c21.352-8.412,37.462-27.297,41.957-50.303c12.65-2.469,22.229-13.631,22.229-26.993
	C345.286,336.861,336.344,326.005,324.332,323.058z M258.264,213.593c9.787,0,17.749,7.962,17.749,17.749
	c0,9.788-7.962,17.749-17.749,17.749c-9.787,0-17.748-7.962-17.748-17.749C240.516,221.554,248.477,213.593,258.264,213.593z
	 M256.218,267.565c29.097,0,52.769,23.672,52.769,52.769v2.189c-43.482-1.812-65.641-23.494-73.328-33.051
	c-2.656-3.303-7.484-3.828-10.787-1.17c-3.302,2.656-3.826,7.484-1.17,10.786c0.406,0.505,0.86,1.049,1.335,1.609
	c-3.386,3.503-10.261,9.118-20.901,11.174C208.2,286.784,230.003,267.565,256.218,267.565z M180.618,349.771
	c0-5.05,3.095-9.39,7.487-11.226v22.451C183.713,359.159,180.618,354.82,180.618,349.771z M316.376,458.674v37.955H190.535v-37.955
	c0-7.586,6.172-13.759,13.759-13.759h22.436c0.04,4.203,3.456,7.599,7.668,7.599c4.237,0,7.672-3.434,7.672-7.672v-14.535
	c4.566,0.969,9.297,1.487,14.146,1.487c3.238,0,6.419-0.242,9.538-0.681v13.729c0,4.238,3.434,7.672,7.672,7.672
	c4.214,0,7.629-3.395,7.668-7.599h21.522C310.204,444.915,316.376,451.088,316.376,458.674z M256.218,416.449
	c-29.097,0-52.769-23.672-52.769-52.769v-36.161c16.31-2.084,27-10.461,32.466-16.043c13.837,11.676,37.339,25.07,73.071,26.405
	v25.798C308.988,392.778,285.315,416.449,256.218,416.449z M324.332,360v-20.461c3.369,2.166,5.61,5.937,5.61,10.23
	S327.701,357.836,324.332,360z"/>
<path d="M233.874,362.509c4.237,0,7.672-3.434,7.672-7.672v-9.527c0-4.238-3.435-7.672-7.672-7.672
	c-4.237,0-7.672,3.434-7.672,7.672v9.527C226.202,359.075,229.637,362.509,233.874,362.509z"/>
<path d="M277.008,337.638c-4.238,0-7.672,3.434-7.672,7.672v9.527c0,4.238,3.434,7.672,7.672,7.672c4.238,0,7.672-3.434,7.672-7.672
	v-9.527C284.68,341.072,281.246,337.638,277.008,337.638z"/>
<path d="M206.561,49.759h100.796c4.238,0,7.672-3.434,7.672-7.672s-3.434-7.672-7.672-7.672H206.561
	c-4.237,0-7.672,3.434-7.672,7.672S202.324,49.759,206.561,49.759z"/>
<path d="M476.048,303.534c-4.238,0-7.672,3.434-7.672,7.672c0,57.391-46.692,104.084-104.085,104.084
	c-4.238,0-7.672,3.434-7.672,7.672c0,4.238,3.434,7.672,7.672,7.672c65.853,0,119.429-53.575,119.429-119.428
	C483.721,306.968,480.287,303.534,476.048,303.534z"/>
<path d="M146.823,415.29c-57.393,0-104.085-46.692-104.085-104.084c0-4.238-3.435-7.672-7.672-7.672s-7.672,3.434-7.672,7.672
	c0,65.853,53.576,119.428,119.429,119.428c4.237,0,7.672-3.434,7.672-7.672C154.495,418.724,151.06,415.29,146.823,415.29z"/>
<g>
</g>
<g>
</g>
<g>
</g>
<g>
</g>
<g>
</g>
<g>
</g>
<g>
</g>
<g>
</g>
<g>
</g>
<g>
</g>
<g>
</g>
<g>
</g>
<g>
</g>
<g>
</g>
<g>
</g>
</svg>
