<?xml version="1.0" encoding="iso-8859-1"?>
<!-- Generator: Adobe Illustrator 19.0.0, SVG Export Plug-In . SVG Version: 6.00 Build 0)  -->
<svg version="1.1" id="Capa_1" xmlns="http://www.w3.org/2000/svg" xmlns:xlink="http://www.w3.org/1999/xlink" x="0px" y="0px"
	 viewBox="0 0 490.692 490.692" style="enable-background:new 0 0 490.692 490.692;" xml:space="preserve">
<g>
	<g>
		<path d="M229.481,171.452l-74.752-44.651c-4.651-2.795-10.816-1.579-14.059,2.859l-63.019,86.144
			c-0.043,0.064-0.043,0.128-0.085,0.171c-8.704,11.179-13.547,25.088-13.547,39.296c0,20.053,9.451,37.76,23.936,49.493
			l-43.499,75.413l-28.331-16.768c-5.077-2.987-11.605-1.344-14.635,3.755c-3.008,5.056-1.323,11.605,3.755,14.613l37.739,22.315
			l36.928,21.845c1.707,1.003,3.584,1.493,5.44,1.493c3.648,0,7.189-1.856,9.195-5.248c3.008-5.056,1.323-11.605-3.755-14.613
			l-27.968-16.512l43.712-75.776c6.741,2.432,13.909,3.989,21.483,3.989c24.747,0,47.445-14.464,57.941-36.843
			c0.021-0.043,0.064-0.064,0.107-0.107l47.552-97.024C236.03,180.305,234.238,174.289,229.481,171.452z"/>
	</g>
</g>
<g>
	<g>
		<path d="M489.215,367.164c-3.029-5.099-9.557-6.763-14.635-3.755l-28.331,16.747l-43.52-75.392
			c14.485-11.733,23.936-29.461,23.936-49.515c0-14.187-4.821-28.096-13.525-39.275c-0.043-0.064-0.043-0.149-0.107-0.213
			l-63.019-86.123c-3.221-4.437-9.387-5.653-14.059-2.859l-74.752,44.629c-4.779,2.837-6.571,8.875-4.117,13.845l47.552,97.024
			c0.021,0.043,0.064,0.064,0.107,0.107c10.539,22.379,33.216,36.843,57.941,36.843c7.573,0,14.741-1.557,21.483-3.989
			l43.712,75.755l-27.968,16.555c-5.056,3.008-6.741,9.536-3.755,14.613c2.005,3.371,5.547,5.248,9.195,5.248
			c1.856,0,3.733-0.469,5.44-1.493l74.667-44.16C490.516,378.769,492.201,372.22,489.215,367.164z"/>
	</g>
</g>
<g>
	<g>
		<path d="M234.367,114.023L223.7,71.356c-1.429-5.739-7.317-9.216-12.928-7.765c-5.739,1.429-9.195,7.211-7.765,12.928
			l10.667,42.667c1.195,4.843,5.547,8.085,10.347,8.085c0.853,0,1.728-0.107,2.581-0.32
			C232.34,125.521,235.796,119.74,234.367,114.023z"/>
	</g>
</g>
<g>
	<g>
		<path d="M279.934,63.591c-5.824-1.429-11.52,2.027-12.928,7.765l-10.667,42.667c-1.429,5.696,2.027,11.499,7.765,12.928
			c0.875,0.213,1.728,0.32,2.581,0.32c4.8,0,9.152-3.221,10.347-8.085L287.7,76.519C289.108,70.801,285.652,65.02,279.934,63.591z"
			/>
	</g>
</g>
<g>
	<g>
		<path d="M287.7,306.023l-10.667-42.667c-1.429-5.717-7.36-9.259-12.928-7.765c-5.739,1.429-9.195,7.211-7.765,12.928
			l10.667,42.667c1.216,4.864,5.568,8.085,10.347,8.085c0.853,0,1.728-0.107,2.581-0.32
			C285.673,317.521,289.129,311.74,287.7,306.023z"/>
	</g>
</g>
<g>
	<g>
		<path d="M226.601,255.591c-5.781-1.472-11.52,2.048-12.928,7.765l-10.667,42.667c-1.408,5.717,2.048,11.499,7.765,12.928
			c0.875,0.213,1.728,0.32,2.581,0.32c4.8,0,9.152-3.221,10.347-8.085l10.667-42.667C235.796,262.801,232.34,257.02,226.601,255.591
			z"/>
	</g>
</g>
<g>
</g>
<g>
</g>
<g>
</g>
<g>
</g>
<g>
</g>
<g>
</g>
<g>
</g>
<g>
</g>
<g>
</g>
<g>
</g>
<g>
</g>
<g>
</g>
<g>
</g>
<g>
</g>
<g>
</g>
</svg>
